<?xml version="1.0" encoding="UTF-8"?>
<svg id="Layer_2" data-name="Layer 2" xmlns="http://www.w3.org/2000/svg" xmlns:xlink="http://www.w3.org/1999/xlink" viewBox="0 0 197.45 421.4">
  <defs>
    <style>
      .cls-1 {
        fill: url(#linear-gradient-2);
      }

      .cls-2 {
        fill: url(#radial-gradient);
      }

      .cls-3 {
        fill: url(#radial-gradient-3);
      }

      .cls-4 {
        fill: url(#radial-gradient-2);
      }

      .cls-5 {
        fill: url(#radial-gradient-4);
      }

      .cls-6 {
        fill: url(#linear-gradient);
      }
    </style>
    <radialGradient id="radial-gradient" cx="116.66" cy="17.18" fx="116.66" fy="17.18" r="117.24" gradientUnits="userSpaceOnUse">
      <stop offset="0" stop-color="#56deea"/>
      <stop offset=".52" stop-color="#61d6e2"/>
      <stop offset="1" stop-color="#71ccd8"/>
    </radialGradient>
    <linearGradient id="linear-gradient" x1="130.73" y1="211.32" x2="130.73" y2="2.62" gradientUnits="userSpaceOnUse">
      <stop offset="0" stop-color="#999"/>
      <stop offset=".23" stop-color="#959595"/>
      <stop offset=".42" stop-color="#8b8c8b"/>
      <stop offset=".6" stop-color="#7a7c7a"/>
      <stop offset=".76" stop-color="#626663"/>
      <stop offset=".89" stop-color="#4a4f4b"/>
    </linearGradient>
    <linearGradient id="linear-gradient-2" x1="56.63" y1="421.01" x2="164.41" y2="310.14" gradientUnits="userSpaceOnUse">
      <stop offset=".22" stop-color="#56deea"/>
      <stop offset=".42" stop-color="#51acb5"/>
      <stop offset=".67" stop-color="#4b747b"/>
      <stop offset=".85" stop-color="#485257"/>
      <stop offset=".95" stop-color="#47454a"/>
    </linearGradient>
    <radialGradient id="radial-gradient-2" cx="114.45" cy="224.35" fx="114.45" fy="224.35" r="224.76" gradientUnits="userSpaceOnUse">
      <stop offset=".45" stop-color="#999"/>
      <stop offset=".56" stop-color="#8d8d8d"/>
      <stop offset=".74" stop-color="#6e706e"/>
      <stop offset=".91" stop-color="#4a4f4b"/>
    </radialGradient>
    <radialGradient id="radial-gradient-3" cx="3.58" cy="314.9" fx="3.58" fy="314.9" r="126.59" gradientUnits="userSpaceOnUse">
      <stop offset=".24" stop-color="#999"/>
      <stop offset=".41" stop-color="#8d8d8d"/>
      <stop offset=".71" stop-color="#6e706e"/>
      <stop offset="1" stop-color="#4a4f4b"/>
    </radialGradient>
    <radialGradient id="radial-gradient-4" cx="131.68" cy="241.14" fx="131.68" fy="241.14" r="93.7" gradientUnits="userSpaceOnUse">
      <stop offset="0" stop-color="#56deea"/>
      <stop offset=".22" stop-color="#4adae7"/>
      <stop offset=".61" stop-color="#2ad0e1"/>
      <stop offset="1" stop-color="#05c5da"/>
    </radialGradient>
  </defs>
  <g id="Layer_1-2" data-name="Layer 1">
    <g>
      <path class="cls-2" d="M181.07,44.24c-35.7-23.67-83.39-21.67-117.06,5.99-2.61,1.88-5.1,3.98-7.45,6.33s-4.45,4.84-6.33,7.45c-7.43,10.34-11.14,22.53-11.14,34.72,0,15.26,5.82,30.52,17.47,42.16l-13.51-13.5c-5.54-5.54-10.08-11.69-13.63-18.24-6.38-11.75-9.57-24.77-9.57-37.78,0-17.95,6.05-35.89,18.17-50.5,38.73-30.29,94.86-27.61,130.51,8.05,4.77,4.77,8.95,9.91,12.54,15.32Z"/>
      <path class="cls-6" d="M168.53,168.53l-42.17,42.17-27.64-27.64,42.17-42.17c23.29-23.29,23.29-61.04,0-84.33-20.95-20.95-53.59-23.05-76.88-6.33,33.67-27.66,81.36-29.66,117.06-5.99,8.34,12.56,13.49,26.61,15.45,41.02,4.06,29.54-5.27,60.56-27.99,83.27Z"/>
      <path class="cls-1" d="M147.22,357.39c7.43-10.34,11.14-22.53,11.14-34.72,0-15.26-5.82-30.52-17.47-42.16l13.51,13.5c5.54,5.54,10.08,11.69,13.63,18.24,6.38,11.75,9.57,24.77,9.57,37.78,0,17.95-6.05,35.89-18.17,50.5-38.73,30.29-94.86,27.61-130.51-8.05-4.77-4.77-8.95-9.91-12.54-15.32,35.7,23.67,83.39,21.67,117.06-5.99,2.61-1.88,5.1-3.98,7.45-6.33s4.45-4.84,6.33-7.45Z"/>
      <path class="cls-4" d="M126.36,210.7l-27.64,27.64-41.94-41.94c-.09-.09-.19-.19-.27-.28l-27.59-27.59C9.64,149.25,0,123.99,0,98.73S9.64,48.19,28.92,28.92c2.9-2.9,5.94-5.59,9.1-8.05-12.12,14.61-18.17,32.55-18.17,50.5,0,13.01,3.19,26.03,9.57,37.78,3.55,6.55,8.09,12.7,13.63,18.24l55.67,55.67,27.64,27.64Z"/>
      <path class="cls-3" d="M71.08,210.7l27.64,27.64-42.17,42.17c-23.29,23.29-23.29,61.04,0,84.33,20.95,20.95,53.59,23.05,76.88,6.33-33.67,27.66-81.36,29.66-117.06,5.99-8.34-12.56-13.49-26.61-15.45-41.02-4.06-29.54,5.27-60.56,27.99-83.27l42.17-42.17Z"/>
      <path class="cls-5" d="M197.44,322.67c0,25.27-9.64,50.54-28.92,69.81-2.9,2.9-5.94,5.59-9.1,8.05,12.12-14.61,18.17-32.55,18.17-50.5,0-13.01-3.19-26.03-9.57-37.78-3.55-6.55-8.09-12.7-13.63-18.24l-13.51-13.5-42.16-42.17,27.64-27.64,14.3,14.3c.09.09.19.19.27.28l27.59,27.59c19.28,19.28,28.92,44.54,28.92,69.8Z"/>
    </g>
  </g>
</svg>